<?xml version="1.0" encoding="utf-8"?>
<svg xmlns="http://www.w3.org/2000/svg" xmlns:xlink="http://www.w3.org/1999/xlink">
	<symbol fill="none" viewBox="0 0 12 8" id="center-tab-marker" xmlns="http://www.w3.org/2000/svg">
		<path fill-rule="evenodd" clip-rule="evenodd" d="M7 0H5v6H0v2h12V6H7V0z" fill="var(--dxre-ruler-slider-stroke-color)"/>
	</symbol>
	<symbol fill="none" viewBox="0 0 12 8" id="decimal-tab-marker" xmlns="http://www.w3.org/2000/svg">
		<path d="M5 0h2v6h5v2H0V6h5V0z" fill="var(--dxre-ruler-slider-stroke-color)"/>
		<path d="M12 0H9v3h3V0z" fill="var(--dxre-ruler-slider-stroke-color)"/>
	</symbol>	
	<symbol id="first-line-indent-slider" width="12" height="11" viewBox="0 0 12 11" fill="none" xmlns="http://www.w3.org/2000/svg">
		<path d="M11.5 0.5V6.73242L6 10.3984L0.5 6.73242V0.5H11.5Z" fill="var(--dxre-ruler-slider-bg-color)" stroke="var(--dxre-ruler-slider-stroke-color)"/>
	</symbol>	
	<symbol id="indent-slider" width="12" height="11" viewBox="0 0 12 11" fill="none" xmlns="http://www.w3.org/2000/svg">
		<path d="M11.5 4.26758V10.5H0.5V4.26758L6 0.600586L11.5 4.26758Z" fill="var(--dxre-ruler-slider-bg-color)" stroke="var(--dxre-ruler-slider-stroke-color)"/>
	</symbol>
	<symbol id="left-indent-slider" width="12" height="6" viewBox="0 0 12 6" fill="none" xmlns="http://www.w3.org/2000/svg">
		<path d="M11.5 0.5V5.5H0.5V0.5H11.5Z" fill="var(--dxre-ruler-slider-bg-color)" stroke="var(--dxre-ruler-slider-stroke-color)"/>
	</symbol>	
	<symbol fill="none" viewBox="0 0 8 8" id="left-tab-marker" xmlns="http://www.w3.org/2000/svg">
		<path d="M2 0H0v8h8V6H2V0z" fill="var(--dxre-ruler-slider-stroke-color)"/>
	</symbol>
	<symbol fill="none" viewBox="0 0 8 8" id="right-tab-marker" xmlns="http://www.w3.org/2000/svg">
		<path d="M6 0h2v8H0V6h6V0z" fill="var(--dxre-ruler-slider-stroke-color)"/>
	</symbol>
	<symbol fill="none" viewBox="0 0 14 12" id="table-column-drag-marked" xmlns="http://www.w3.org/2000/svg">
		<path fill-rule="evenodd" clip-rule="evenodd" d="M4 0H2v2H0v2h2v2H0v2h2v2H0v2h14v-2h-2V8h2V6h-2V4h2V2h-2V0h-2v2H8V0H6v2H4V0zm0 4v2h2V4H4zm4 0v2h2V4H8zm-4 6V8h2v2H4zm4 0V8h2v2H8z" fill="var(--dxre-ruler-slider-stroke-color)"/>
	</symbol>
</svg>