<?xml version="1.0" standalone="no"?>
<!DOCTYPE svg PUBLIC "-//W3C//DTD SVG 20010904//EN"
 "http://www.w3.org/TR/2001/REC-SVG-20010904/DTD/svg10.dtd">
<svg version="1.0" xmlns="http://www.w3.org/2000/svg"
 width="64.000000pt" height="64.000000pt" viewBox="0 0 64.000000 64.000000"
 preserveAspectRatio="xMidYMid meet">
<metadata>
Created by potrace 1.10, written by Peter Selinger 2001-2011
</metadata>
<g transform="translate(0.000000,64.000000) scale(0.100000,-0.100000)"
fill="#000000" stroke="none">
<path d="M108 449 c-21 -10 -44 -33 -53 -49 -20 -38 -19 -50 3 -25 39 45 116
75 126 49 3 -8 1 -14 -4 -14 -4 0 -22 -12 -39 -26 -52 -43 -38 -97 32 -123 16
-6 25 -16 22 -21 -4 -6 -11 -8 -16 -5 -5 4 -9 1 -9 -4 0 -21 -36 -11 -68 19
-33 29 -55 90 -33 90 6 0 11 5 11 10 0 14 -13 12 -35 -4 -18 -13 -18 -15 -1
-61 38 -100 148 -116 240 -35 l36 32 -23 19 -22 18 27 1 c18 0 29 7 33 20 4
11 11 18 16 15 11 -7 0 -57 -14 -66 -29 -19 80 -89 137 -89 121 0 176 139 90
226 -60 59 -138 52 -211 -18 l-33 -32 -32 32 c-34 32 -95 62 -125 62 -10 -1
-35 -10 -55 -21z m415 -30 c29 -15 67 -50 67 -61 0 -5 -5 -6 -11 -3 -5 4 -19
-1 -30 -11 -17 -15 -19 -15 -19 -1 0 8 -12 30 -26 47 -21 25 -32 30 -51 25
-16 -4 -22 -2 -18 5 8 13 61 13 88 -1z m-293 -59 l35 -30 -25 -20 c-47 -39
-56 -41 -84 -19 -32 25 -33 52 -4 79 29 27 37 25 78 -10z m260 10 c27 -27 25
-55 -6 -79 -28 -22 -37 -20 -84 20 l-24 21 34 29 c42 34 54 35 80 9z m66 -88
c-16 -30 -73 -59 -99 -49 -6 2 0 8 14 12 15 3 33 18 40 32 12 22 48 46 57 38
2 -2 -4 -17 -12 -33z"/>
</g>
</svg>
